<mxfile host="app.diagrams.net" modified="2021-05-22T03:40:18.659Z" agent="5.0 (Macintosh; Intel Mac OS X 10_13_6) AppleWebKit/537.36 (KHTML, like Gecko) Chrome/90.0.4430.212 Safari/537.36" etag="_6lnaMSnIh0HycKl1DCo" version="14.7.0" type="github">
  <diagram id="oFYCjMv2BYkiey9ZPpyB" name="Page-1">
    <mxGraphModel dx="946" dy="1815" grid="1" gridSize="10" guides="1" tooltips="1" connect="1" arrows="1" fold="1" page="1" pageScale="1" pageWidth="827" pageHeight="1169" math="0" shadow="0">
      <root>
        <mxCell id="0" />
        <mxCell id="1" parent="0" />
        <mxCell id="LRvgh7Cq0P0TMibMzDX2-58" value="" style="rounded=0;whiteSpace=wrap;html=1;" vertex="1" parent="1">
          <mxGeometry x="680" y="-10" width="400" height="260" as="geometry" />
        </mxCell>
        <mxCell id="LRvgh7Cq0P0TMibMzDX2-57" value="" style="rounded=0;whiteSpace=wrap;html=1;" vertex="1" parent="1">
          <mxGeometry x="250" y="-10" width="400" height="260" as="geometry" />
        </mxCell>
        <mxCell id="LRvgh7Cq0P0TMibMzDX2-68" style="edgeStyle=orthogonalEdgeStyle;rounded=0;orthogonalLoop=1;jettySize=auto;html=1;exitX=0.5;exitY=1;exitDx=0;exitDy=0;" edge="1" parent="1" source="LRvgh7Cq0P0TMibMzDX2-3">
          <mxGeometry relative="1" as="geometry">
            <mxPoint x="325" y="420" as="targetPoint" />
          </mxGeometry>
        </mxCell>
        <mxCell id="LRvgh7Cq0P0TMibMzDX2-70" value="http" style="edgeLabel;html=1;align=center;verticalAlign=middle;resizable=0;points=[];" vertex="1" connectable="0" parent="LRvgh7Cq0P0TMibMzDX2-68">
          <mxGeometry x="-0.25" y="1" relative="1" as="geometry">
            <mxPoint as="offset" />
          </mxGeometry>
        </mxCell>
        <mxCell id="LRvgh7Cq0P0TMibMzDX2-3" value="api" style="rounded=0;whiteSpace=wrap;html=1;" vertex="1" parent="1">
          <mxGeometry x="265" y="290" width="120" height="60" as="geometry" />
        </mxCell>
        <mxCell id="LRvgh7Cq0P0TMibMzDX2-72" style="edgeStyle=orthogonalEdgeStyle;rounded=0;orthogonalLoop=1;jettySize=auto;html=1;exitX=0.5;exitY=1;exitDx=0;exitDy=0;" edge="1" parent="1" source="LRvgh7Cq0P0TMibMzDX2-5">
          <mxGeometry relative="1" as="geometry">
            <mxPoint x="473" y="420" as="targetPoint" />
          </mxGeometry>
        </mxCell>
        <mxCell id="LRvgh7Cq0P0TMibMzDX2-73" value="trpc" style="edgeLabel;html=1;align=center;verticalAlign=middle;resizable=0;points=[];" vertex="1" connectable="0" parent="LRvgh7Cq0P0TMibMzDX2-72">
          <mxGeometry x="-0.0528" y="1" relative="1" as="geometry">
            <mxPoint as="offset" />
          </mxGeometry>
        </mxCell>
        <mxCell id="LRvgh7Cq0P0TMibMzDX2-5" value="crontab" style="rounded=0;whiteSpace=wrap;html=1;" vertex="1" parent="1">
          <mxGeometry x="413" y="290" width="120" height="60" as="geometry" />
        </mxCell>
        <mxCell id="LRvgh7Cq0P0TMibMzDX2-10" style="edgeStyle=orthogonalEdgeStyle;rounded=0;orthogonalLoop=1;jettySize=auto;html=1;exitX=0.5;exitY=1;exitDx=0;exitDy=0;" edge="1" parent="1" source="LRvgh7Cq0P0TMibMzDX2-7">
          <mxGeometry relative="1" as="geometry">
            <mxPoint x="930" y="420" as="targetPoint" />
          </mxGeometry>
        </mxCell>
        <mxCell id="LRvgh7Cq0P0TMibMzDX2-74" value="trpc" style="edgeLabel;html=1;align=center;verticalAlign=middle;resizable=0;points=[];" vertex="1" connectable="0" parent="LRvgh7Cq0P0TMibMzDX2-10">
          <mxGeometry x="-0.2" y="4" relative="1" as="geometry">
            <mxPoint x="-4" as="offset" />
          </mxGeometry>
        </mxCell>
        <mxCell id="LRvgh7Cq0P0TMibMzDX2-7" value="mq" style="rounded=0;whiteSpace=wrap;html=1;" vertex="1" parent="1">
          <mxGeometry x="870" y="290" width="120" height="60" as="geometry" />
        </mxCell>
        <mxCell id="LRvgh7Cq0P0TMibMzDX2-25" style="edgeStyle=orthogonalEdgeStyle;rounded=0;orthogonalLoop=1;jettySize=auto;html=1;exitX=0;exitY=0.5;exitDx=0;exitDy=0;entryX=0;entryY=0.5;entryDx=0;entryDy=0;entryPerimeter=0;" edge="1" parent="1" source="LRvgh7Cq0P0TMibMzDX2-21" target="LRvgh7Cq0P0TMibMzDX2-23">
          <mxGeometry relative="1" as="geometry" />
        </mxCell>
        <mxCell id="LRvgh7Cq0P0TMibMzDX2-35" style="edgeStyle=orthogonalEdgeStyle;rounded=0;orthogonalLoop=1;jettySize=auto;html=1;exitX=0.5;exitY=1;exitDx=0;exitDy=0;entryX=0.5;entryY=0;entryDx=0;entryDy=0;entryPerimeter=0;" edge="1" parent="1" source="LRvgh7Cq0P0TMibMzDX2-21" target="LRvgh7Cq0P0TMibMzDX2-23">
          <mxGeometry relative="1" as="geometry" />
        </mxCell>
        <mxCell id="LRvgh7Cq0P0TMibMzDX2-21" value="crontabserver" style="rounded=0;whiteSpace=wrap;html=1;" vertex="1" parent="1">
          <mxGeometry x="350" y="70" width="200" height="60" as="geometry" />
        </mxCell>
        <mxCell id="LRvgh7Cq0P0TMibMzDX2-36" style="edgeStyle=orthogonalEdgeStyle;rounded=0;orthogonalLoop=1;jettySize=auto;html=1;exitX=1;exitY=0.5;exitDx=0;exitDy=0;exitPerimeter=0;entryX=0;entryY=0.5;entryDx=0;entryDy=0;" edge="1" parent="1" source="LRvgh7Cq0P0TMibMzDX2-23" target="LRvgh7Cq0P0TMibMzDX2-37">
          <mxGeometry relative="1" as="geometry">
            <mxPoint x="570" y="203" as="targetPoint" />
          </mxGeometry>
        </mxCell>
        <mxCell id="LRvgh7Cq0P0TMibMzDX2-23" value="db" style="shape=cylinder3;whiteSpace=wrap;html=1;boundedLbl=1;backgroundOutline=1;size=15;" vertex="1" parent="1">
          <mxGeometry x="425" y="170" width="50" height="66.67" as="geometry" />
        </mxCell>
        <mxCell id="LRvgh7Cq0P0TMibMzDX2-27" style="edgeStyle=orthogonalEdgeStyle;rounded=0;orthogonalLoop=1;jettySize=auto;html=1;exitX=0.5;exitY=1;exitDx=0;exitDy=0;entryX=0.25;entryY=0;entryDx=0;entryDy=0;" edge="1" parent="1" source="LRvgh7Cq0P0TMibMzDX2-26" target="LRvgh7Cq0P0TMibMzDX2-21">
          <mxGeometry relative="1" as="geometry" />
        </mxCell>
        <mxCell id="LRvgh7Cq0P0TMibMzDX2-26" value="start" style="text;html=1;strokeColor=none;fillColor=none;align=center;verticalAlign=middle;whiteSpace=wrap;rounded=0;" vertex="1" parent="1">
          <mxGeometry x="380" width="40" height="20" as="geometry" />
        </mxCell>
        <mxCell id="LRvgh7Cq0P0TMibMzDX2-29" style="edgeStyle=orthogonalEdgeStyle;rounded=0;orthogonalLoop=1;jettySize=auto;html=1;exitX=0.5;exitY=1;exitDx=0;exitDy=0;" edge="1" parent="1" source="LRvgh7Cq0P0TMibMzDX2-28" target="LRvgh7Cq0P0TMibMzDX2-21">
          <mxGeometry relative="1" as="geometry" />
        </mxCell>
        <mxCell id="LRvgh7Cq0P0TMibMzDX2-28" value="excute" style="text;html=1;strokeColor=none;fillColor=none;align=center;verticalAlign=middle;whiteSpace=wrap;rounded=0;" vertex="1" parent="1">
          <mxGeometry x="430" width="40" height="20" as="geometry" />
        </mxCell>
        <mxCell id="LRvgh7Cq0P0TMibMzDX2-31" style="edgeStyle=orthogonalEdgeStyle;rounded=0;orthogonalLoop=1;jettySize=auto;html=1;exitX=0.5;exitY=1;exitDx=0;exitDy=0;entryX=0.75;entryY=0;entryDx=0;entryDy=0;" edge="1" parent="1" source="LRvgh7Cq0P0TMibMzDX2-30" target="LRvgh7Cq0P0TMibMzDX2-21">
          <mxGeometry relative="1" as="geometry" />
        </mxCell>
        <mxCell id="LRvgh7Cq0P0TMibMzDX2-30" value="stop" style="text;html=1;strokeColor=none;fillColor=none;align=center;verticalAlign=middle;whiteSpace=wrap;rounded=0;" vertex="1" parent="1">
          <mxGeometry x="472" width="56" height="20" as="geometry" />
        </mxCell>
        <mxCell id="LRvgh7Cq0P0TMibMzDX2-34" style="edgeStyle=orthogonalEdgeStyle;rounded=0;orthogonalLoop=1;jettySize=auto;html=1;exitX=1;exitY=0.5;exitDx=0;exitDy=0;entryX=0;entryY=0.5;entryDx=0;entryDy=0;" edge="1" parent="1" source="LRvgh7Cq0P0TMibMzDX2-33" target="LRvgh7Cq0P0TMibMzDX2-21">
          <mxGeometry relative="1" as="geometry" />
        </mxCell>
        <mxCell id="LRvgh7Cq0P0TMibMzDX2-33" value="create" style="text;html=1;strokeColor=none;fillColor=none;align=center;verticalAlign=middle;whiteSpace=wrap;rounded=0;" vertex="1" parent="1">
          <mxGeometry x="260" y="90" width="40" height="20" as="geometry" />
        </mxCell>
        <mxCell id="LRvgh7Cq0P0TMibMzDX2-37" value="get" style="text;html=1;strokeColor=none;fillColor=none;align=center;verticalAlign=middle;whiteSpace=wrap;rounded=0;" vertex="1" parent="1">
          <mxGeometry x="555" y="193.34000000000003" width="40" height="20" as="geometry" />
        </mxCell>
        <mxCell id="LRvgh7Cq0P0TMibMzDX2-39" style="edgeStyle=orthogonalEdgeStyle;rounded=0;orthogonalLoop=1;jettySize=auto;html=1;exitX=0;exitY=0.5;exitDx=0;exitDy=0;entryX=1;entryY=0.5;entryDx=0;entryDy=0;" edge="1" parent="1" source="LRvgh7Cq0P0TMibMzDX2-38" target="LRvgh7Cq0P0TMibMzDX2-21">
          <mxGeometry relative="1" as="geometry" />
        </mxCell>
        <mxCell id="LRvgh7Cq0P0TMibMzDX2-38" value="healthcheck" style="text;html=1;strokeColor=none;fillColor=none;align=center;verticalAlign=middle;whiteSpace=wrap;rounded=0;" vertex="1" parent="1">
          <mxGeometry x="570" y="90" width="75" height="20" as="geometry" />
        </mxCell>
        <mxCell id="LRvgh7Cq0P0TMibMzDX2-41" style="edgeStyle=orthogonalEdgeStyle;rounded=0;orthogonalLoop=1;jettySize=auto;html=1;exitX=0;exitY=0.5;exitDx=0;exitDy=0;entryX=0;entryY=0.5;entryDx=0;entryDy=0;entryPerimeter=0;" edge="1" parent="1" source="LRvgh7Cq0P0TMibMzDX2-43" target="LRvgh7Cq0P0TMibMzDX2-45">
          <mxGeometry relative="1" as="geometry" />
        </mxCell>
        <mxCell id="LRvgh7Cq0P0TMibMzDX2-42" style="edgeStyle=orthogonalEdgeStyle;rounded=0;orthogonalLoop=1;jettySize=auto;html=1;exitX=0.5;exitY=1;exitDx=0;exitDy=0;entryX=0.5;entryY=0;entryDx=0;entryDy=0;entryPerimeter=0;" edge="1" parent="1" source="LRvgh7Cq0P0TMibMzDX2-43" target="LRvgh7Cq0P0TMibMzDX2-45">
          <mxGeometry relative="1" as="geometry" />
        </mxCell>
        <mxCell id="LRvgh7Cq0P0TMibMzDX2-43" value="consumserver" style="rounded=0;whiteSpace=wrap;html=1;" vertex="1" parent="1">
          <mxGeometry x="780" y="70" width="200" height="60" as="geometry" />
        </mxCell>
        <mxCell id="LRvgh7Cq0P0TMibMzDX2-44" style="edgeStyle=orthogonalEdgeStyle;rounded=0;orthogonalLoop=1;jettySize=auto;html=1;exitX=1;exitY=0.5;exitDx=0;exitDy=0;exitPerimeter=0;entryX=0;entryY=0.5;entryDx=0;entryDy=0;" edge="1" parent="1" source="LRvgh7Cq0P0TMibMzDX2-45" target="LRvgh7Cq0P0TMibMzDX2-54">
          <mxGeometry relative="1" as="geometry">
            <mxPoint x="1000" y="203" as="targetPoint" />
          </mxGeometry>
        </mxCell>
        <mxCell id="LRvgh7Cq0P0TMibMzDX2-45" value="db" style="shape=cylinder3;whiteSpace=wrap;html=1;boundedLbl=1;backgroundOutline=1;size=15;" vertex="1" parent="1">
          <mxGeometry x="855" y="170" width="50" height="66.67" as="geometry" />
        </mxCell>
        <mxCell id="LRvgh7Cq0P0TMibMzDX2-46" style="edgeStyle=orthogonalEdgeStyle;rounded=0;orthogonalLoop=1;jettySize=auto;html=1;exitX=0.5;exitY=1;exitDx=0;exitDy=0;entryX=0.25;entryY=0;entryDx=0;entryDy=0;" edge="1" parent="1" source="LRvgh7Cq0P0TMibMzDX2-47" target="LRvgh7Cq0P0TMibMzDX2-43">
          <mxGeometry relative="1" as="geometry" />
        </mxCell>
        <mxCell id="LRvgh7Cq0P0TMibMzDX2-47" value="start" style="text;html=1;strokeColor=none;fillColor=none;align=center;verticalAlign=middle;whiteSpace=wrap;rounded=0;" vertex="1" parent="1">
          <mxGeometry x="810" width="40" height="20" as="geometry" />
        </mxCell>
        <mxCell id="LRvgh7Cq0P0TMibMzDX2-48" style="edgeStyle=orthogonalEdgeStyle;rounded=0;orthogonalLoop=1;jettySize=auto;html=1;exitX=0.5;exitY=1;exitDx=0;exitDy=0;" edge="1" parent="1" source="LRvgh7Cq0P0TMibMzDX2-49" target="LRvgh7Cq0P0TMibMzDX2-43">
          <mxGeometry relative="1" as="geometry" />
        </mxCell>
        <mxCell id="LRvgh7Cq0P0TMibMzDX2-49" value="excute" style="text;html=1;strokeColor=none;fillColor=none;align=center;verticalAlign=middle;whiteSpace=wrap;rounded=0;" vertex="1" parent="1">
          <mxGeometry x="860" width="40" height="20" as="geometry" />
        </mxCell>
        <mxCell id="LRvgh7Cq0P0TMibMzDX2-50" style="edgeStyle=orthogonalEdgeStyle;rounded=0;orthogonalLoop=1;jettySize=auto;html=1;exitX=0.5;exitY=1;exitDx=0;exitDy=0;entryX=0.75;entryY=0;entryDx=0;entryDy=0;" edge="1" parent="1" source="LRvgh7Cq0P0TMibMzDX2-51" target="LRvgh7Cq0P0TMibMzDX2-43">
          <mxGeometry relative="1" as="geometry" />
        </mxCell>
        <mxCell id="LRvgh7Cq0P0TMibMzDX2-51" value="stop" style="text;html=1;strokeColor=none;fillColor=none;align=center;verticalAlign=middle;whiteSpace=wrap;rounded=0;" vertex="1" parent="1">
          <mxGeometry x="902" width="56" height="20" as="geometry" />
        </mxCell>
        <mxCell id="LRvgh7Cq0P0TMibMzDX2-52" style="edgeStyle=orthogonalEdgeStyle;rounded=0;orthogonalLoop=1;jettySize=auto;html=1;exitX=1;exitY=0.5;exitDx=0;exitDy=0;entryX=0;entryY=0.5;entryDx=0;entryDy=0;" edge="1" parent="1" source="LRvgh7Cq0P0TMibMzDX2-53" target="LRvgh7Cq0P0TMibMzDX2-43">
          <mxGeometry relative="1" as="geometry" />
        </mxCell>
        <mxCell id="LRvgh7Cq0P0TMibMzDX2-53" value="create" style="text;html=1;strokeColor=none;fillColor=none;align=center;verticalAlign=middle;whiteSpace=wrap;rounded=0;" vertex="1" parent="1">
          <mxGeometry x="690" y="90" width="40" height="20" as="geometry" />
        </mxCell>
        <mxCell id="LRvgh7Cq0P0TMibMzDX2-54" value="get" style="text;html=1;strokeColor=none;fillColor=none;align=center;verticalAlign=middle;whiteSpace=wrap;rounded=0;" vertex="1" parent="1">
          <mxGeometry x="985" y="193.34000000000003" width="40" height="20" as="geometry" />
        </mxCell>
        <mxCell id="LRvgh7Cq0P0TMibMzDX2-55" style="edgeStyle=orthogonalEdgeStyle;rounded=0;orthogonalLoop=1;jettySize=auto;html=1;exitX=0;exitY=0.5;exitDx=0;exitDy=0;entryX=1;entryY=0.5;entryDx=0;entryDy=0;" edge="1" parent="1" source="LRvgh7Cq0P0TMibMzDX2-56" target="LRvgh7Cq0P0TMibMzDX2-43">
          <mxGeometry relative="1" as="geometry" />
        </mxCell>
        <mxCell id="LRvgh7Cq0P0TMibMzDX2-56" value="healthcheck" style="text;html=1;strokeColor=none;fillColor=none;align=center;verticalAlign=middle;whiteSpace=wrap;rounded=0;" vertex="1" parent="1">
          <mxGeometry x="1000" y="90" width="75" height="20" as="geometry" />
        </mxCell>
        <mxCell id="LRvgh7Cq0P0TMibMzDX2-61" value="" style="endArrow=none;dashed=1;html=1;exitX=1;exitY=0;exitDx=0;exitDy=0;entryX=1;entryY=1;entryDx=0;entryDy=0;" edge="1" parent="1" source="LRvgh7Cq0P0TMibMzDX2-5" target="LRvgh7Cq0P0TMibMzDX2-57">
          <mxGeometry width="50" height="50" relative="1" as="geometry">
            <mxPoint x="560" y="400" as="sourcePoint" />
            <mxPoint x="610" y="350" as="targetPoint" />
          </mxGeometry>
        </mxCell>
        <mxCell id="LRvgh7Cq0P0TMibMzDX2-62" value="" style="endArrow=none;dashed=1;html=1;exitX=0;exitY=0;exitDx=0;exitDy=0;entryX=0;entryY=1;entryDx=0;entryDy=0;" edge="1" parent="1" source="LRvgh7Cq0P0TMibMzDX2-5" target="LRvgh7Cq0P0TMibMzDX2-57">
          <mxGeometry width="50" height="50" relative="1" as="geometry">
            <mxPoint x="525" y="300" as="sourcePoint" />
            <mxPoint x="660" y="260" as="targetPoint" />
          </mxGeometry>
        </mxCell>
        <mxCell id="LRvgh7Cq0P0TMibMzDX2-63" value="" style="endArrow=none;dashed=1;html=1;exitX=0;exitY=1;exitDx=0;exitDy=0;entryX=0;entryY=0;entryDx=0;entryDy=0;" edge="1" parent="1" source="LRvgh7Cq0P0TMibMzDX2-58" target="LRvgh7Cq0P0TMibMzDX2-7">
          <mxGeometry width="50" height="50" relative="1" as="geometry">
            <mxPoint x="535" y="310" as="sourcePoint" />
            <mxPoint x="670" y="270" as="targetPoint" />
          </mxGeometry>
        </mxCell>
        <mxCell id="LRvgh7Cq0P0TMibMzDX2-64" value="" style="endArrow=none;dashed=1;html=1;exitX=1;exitY=1;exitDx=0;exitDy=0;entryX=1;entryY=0;entryDx=0;entryDy=0;" edge="1" parent="1" source="LRvgh7Cq0P0TMibMzDX2-58" target="LRvgh7Cq0P0TMibMzDX2-7">
          <mxGeometry width="50" height="50" relative="1" as="geometry">
            <mxPoint x="690" y="260" as="sourcePoint" />
            <mxPoint x="830" y="290" as="targetPoint" />
          </mxGeometry>
        </mxCell>
        <mxCell id="LRvgh7Cq0P0TMibMzDX2-80" value="" style="group" vertex="1" connectable="0" parent="1">
          <mxGeometry x="260" y="430" width="820" height="210" as="geometry" />
        </mxCell>
        <mxCell id="LRvgh7Cq0P0TMibMzDX2-1" value="" style="rounded=0;whiteSpace=wrap;html=1;" vertex="1" parent="LRvgh7Cq0P0TMibMzDX2-80">
          <mxGeometry y="60" width="284.26666666666665" height="60" as="geometry" />
        </mxCell>
        <mxCell id="LRvgh7Cq0P0TMibMzDX2-12" value="go" style="whiteSpace=wrap;html=1;aspect=fixed;" vertex="1" parent="LRvgh7Cq0P0TMibMzDX2-80">
          <mxGeometry x="38.266666666666666" y="70" width="40" height="40" as="geometry" />
        </mxCell>
        <mxCell id="LRvgh7Cq0P0TMibMzDX2-13" value="js" style="whiteSpace=wrap;html=1;aspect=fixed;" vertex="1" parent="LRvgh7Cq0P0TMibMzDX2-80">
          <mxGeometry x="92.93333333333332" y="70" width="40" height="40" as="geometry" />
        </mxCell>
        <mxCell id="LRvgh7Cq0P0TMibMzDX2-14" value="lua" style="whiteSpace=wrap;html=1;aspect=fixed;" vertex="1" parent="LRvgh7Cq0P0TMibMzDX2-80">
          <mxGeometry x="147.6" y="70" width="40" height="40" as="geometry" />
        </mxCell>
        <mxCell id="LRvgh7Cq0P0TMibMzDX2-15" value="php" style="whiteSpace=wrap;html=1;aspect=fixed;" vertex="1" parent="LRvgh7Cq0P0TMibMzDX2-80">
          <mxGeometry x="202.26666666666665" y="70" width="40" height="40" as="geometry" />
        </mxCell>
        <mxCell id="LRvgh7Cq0P0TMibMzDX2-16" value="" style="rounded=0;whiteSpace=wrap;html=1;" vertex="1" parent="LRvgh7Cq0P0TMibMzDX2-80">
          <mxGeometry x="535.7333333333333" y="60" width="284.26666666666665" height="60" as="geometry" />
        </mxCell>
        <mxCell id="LRvgh7Cq0P0TMibMzDX2-17" value="go" style="whiteSpace=wrap;html=1;aspect=fixed;" vertex="1" parent="LRvgh7Cq0P0TMibMzDX2-80">
          <mxGeometry x="574" y="70" width="40" height="40" as="geometry" />
        </mxCell>
        <mxCell id="LRvgh7Cq0P0TMibMzDX2-18" value="js" style="whiteSpace=wrap;html=1;aspect=fixed;" vertex="1" parent="LRvgh7Cq0P0TMibMzDX2-80">
          <mxGeometry x="628.6666666666666" y="70" width="40" height="40" as="geometry" />
        </mxCell>
        <mxCell id="LRvgh7Cq0P0TMibMzDX2-19" value="lua" style="whiteSpace=wrap;html=1;aspect=fixed;" vertex="1" parent="LRvgh7Cq0P0TMibMzDX2-80">
          <mxGeometry x="683.3333333333333" y="70" width="40" height="40" as="geometry" />
        </mxCell>
        <mxCell id="LRvgh7Cq0P0TMibMzDX2-20" value="php" style="whiteSpace=wrap;html=1;aspect=fixed;" vertex="1" parent="LRvgh7Cq0P0TMibMzDX2-80">
          <mxGeometry x="738" y="70" width="40" height="40" as="geometry" />
        </mxCell>
        <mxCell id="LRvgh7Cq0P0TMibMzDX2-66" value="BaaS" style="rounded=0;whiteSpace=wrap;html=1;" vertex="1" parent="LRvgh7Cq0P0TMibMzDX2-80">
          <mxGeometry y="170" width="820" height="40" as="geometry" />
        </mxCell>
        <mxCell id="LRvgh7Cq0P0TMibMzDX2-76" style="edgeStyle=orthogonalEdgeStyle;rounded=0;orthogonalLoop=1;jettySize=auto;html=1;exitX=0.5;exitY=1;exitDx=0;exitDy=0;entryX=0.5;entryY=0;entryDx=0;entryDy=0;" edge="1" parent="LRvgh7Cq0P0TMibMzDX2-80" source="LRvgh7Cq0P0TMibMzDX2-1" target="LRvgh7Cq0P0TMibMzDX2-66">
          <mxGeometry relative="1" as="geometry">
            <Array as="points">
              <mxPoint x="142.13333333333333" y="150" />
              <mxPoint x="410" y="150" />
            </Array>
          </mxGeometry>
        </mxCell>
        <mxCell id="LRvgh7Cq0P0TMibMzDX2-77" style="edgeStyle=orthogonalEdgeStyle;rounded=0;orthogonalLoop=1;jettySize=auto;html=1;exitX=0.5;exitY=1;exitDx=0;exitDy=0;" edge="1" parent="LRvgh7Cq0P0TMibMzDX2-80" source="LRvgh7Cq0P0TMibMzDX2-16" target="LRvgh7Cq0P0TMibMzDX2-66">
          <mxGeometry relative="1" as="geometry">
            <Array as="points">
              <mxPoint x="677.8666666666667" y="150" />
              <mxPoint x="410" y="150" />
            </Array>
          </mxGeometry>
        </mxCell>
        <mxCell id="LRvgh7Cq0P0TMibMzDX2-78" style="edgeStyle=orthogonalEdgeStyle;rounded=0;orthogonalLoop=1;jettySize=auto;html=1;exitX=0.5;exitY=1;exitDx=0;exitDy=0;" edge="1" parent="LRvgh7Cq0P0TMibMzDX2-80" source="LRvgh7Cq0P0TMibMzDX2-67" target="LRvgh7Cq0P0TMibMzDX2-1">
          <mxGeometry relative="1" as="geometry">
            <Array as="points">
              <mxPoint x="410" y="40" />
              <mxPoint x="142.13333333333333" y="40" />
            </Array>
          </mxGeometry>
        </mxCell>
        <mxCell id="LRvgh7Cq0P0TMibMzDX2-79" style="edgeStyle=orthogonalEdgeStyle;rounded=0;orthogonalLoop=1;jettySize=auto;html=1;exitX=0.5;exitY=1;exitDx=0;exitDy=0;entryX=0.5;entryY=0;entryDx=0;entryDy=0;" edge="1" parent="LRvgh7Cq0P0TMibMzDX2-80" source="LRvgh7Cq0P0TMibMzDX2-67" target="LRvgh7Cq0P0TMibMzDX2-16">
          <mxGeometry relative="1" as="geometry">
            <Array as="points">
              <mxPoint x="410" y="40" />
              <mxPoint x="677.8666666666667" y="40" />
            </Array>
          </mxGeometry>
        </mxCell>
        <mxCell id="LRvgh7Cq0P0TMibMzDX2-67" value="faas-srv" style="rounded=0;whiteSpace=wrap;html=1;" vertex="1" parent="LRvgh7Cq0P0TMibMzDX2-80">
          <mxGeometry width="820" height="30" as="geometry" />
        </mxCell>
        <mxCell id="LRvgh7Cq0P0TMibMzDX2-81" value="webengine ...." style="rounded=0;whiteSpace=wrap;html=1;" vertex="1" parent="1">
          <mxGeometry x="550" y="290" width="100" height="60" as="geometry" />
        </mxCell>
      </root>
    </mxGraphModel>
  </diagram>
</mxfile>
